# AST/ASF file generated using VICON BodyLanguage
# -----------------------------------------------
:version 1.10
:name VICON
:units
  mass 1.0
  length 0.45
  angle deg
:documentation
   .ast/.asf automatically generated from VICON data using
   VICON BodyBuilder and BodyLanguage model FoxedUp or BRILLIANT.MOD
:root
   order TX TY TZ RX RY RZ
   axis XYZ
   position 0 0 0  
   orientation 0 0 0 
:bonedata
  begin
     id 1 
     name lhipjoint
     direction 0.630082 -0.636569 0.44472 
     length 2.82754 
     axis 0 0 0  XYZ
  end
  begin
     id 2 
     name lfemur
     direction 0.34202 -0.939693 0  
     length 7.26371  
     axis 0 0 20  XYZ
    dof rx ry rz
    limits (-160.0 20.0)
           (-70.0 70.0)
           (-60.0 70.0)
  end
  begin
     id 3 
     name ltibia
     direction 0.34202 -0.939693 0   
     length 7.88616   
     axis 0 0 20   XYZ
    dof rx
    limits (-10.0 170.0)
  end
  begin
     id 4 
     name lfoot
     direction 0.0603448 -0.165796 0.984312   
     length 1.77861   
     axis -90 7.62852e-016 20   XYZ
    dof rx rz
    limits (-45.0 90.0)
           (-70.0 20.0)
  end
  begin
     id 5 
     name ltoes
     direction 1.53577e-011 -4.21876e-011 1   
     length 0.902235   
     axis -90 7.62852e-016 20   XYZ
    dof rx
    limits (-90.0 20.0)
  end
  begin
     id 6 
     name rhipjoint
     direction -0.656778 -0.61817 0.431866   
     length 2.9117  
     axis 0 0 0  XYZ 
  end
  begin
     id 7 
     name rfemur
     direction -0.34202 -0.939693 0   
     length 6.81603   
     axis 0 0 -20   XYZ
    dof rx ry rz
    limits (-160.0 20.0)
           (-70.0 70.0)
           (-70.0 60.0)
  end
  begin
     id 8 
     name rtibia
     direction -0.34202 -0.939693 0   
     length 8.05997   
     axis 0 0 -20   XYZ
    dof rx
    limits (-10.0 170.0)
 end
 begin
     id 9 
     name rfoot
     direction -0.0862404 -0.236944 0.967688   
     length 1.84899  
     axis -90 -7.62852e-016 -20   XYZ
    dof rx rz
    limits (-45.0 90.0)
           (-20.0 70.0)
  end
  begin
     id 10 
     name rtoes
     direction -1.53561e-011 -4.21798e-011 1   
     length 0.931579   
     axis -90 -7.62852e-016 -20   XYZ
    dof rx
    limits (-90.0 20.0)
  end
  begin
     id 11 
     name lowerback
     direction -0.0110203 0.991769 -0.127564   
     length 2.05686   
     axis 0 0 0   XYZ
    dof rx ry rz
    limits (-20.0 45.0)
           (-30.0 30.0)
           (-30.0 30.0)
  end
  begin
     id 12 
     name upperback
     direction 0.0109719 0.99993 -0.00432479   
     length 2.06234   
     axis 0 0 0   XYZ
    dof rx ry rz
    limits (-20.0 45.0)
           (-30.0 30.0)
           (-30.0 30.0)
  end
  begin
     id 13 
     name thorax
     direction 0.0173308 0.998351 0.0547306   
     length 2.09856   
     axis 0 0 0   XYZ
    dof rx ry rz
    limits (-20.0 45.0)
           (-30.0 30.0)
           (-30.0 30.0)
  end
  begin
     id 14 
     name lowerneck
     direction -0.0311736 0.989033 0.144366   
     length 1.98151   
     axis 0 0 0   XYZ
    dof rx ry rz
    limits (-20.0 45.0)
           (-30.0 30.0)
           (-30.0 30.0)
  end
  begin
     id 15 
     name upperneck
     direction 0.0421057 0.975772 -0.214698   
     length 2.01457   
     axis 0 0 0   XYZ
    dof rx ry rz
    limits (-20.0 45.0)
           (-30.0 30.0)
           (-30.0 30.0)
  end
  begin
     id 16
     name head
     direction 0.0136911 0.995958 -0.0887718  
     length 2.03562  
     axis 0 0 0   XYZ
    dof rx ry rz
    limits (-20.0 45.0)
           (-30.0 30.0)
           (-30.0 30.0)
  end
  begin
     id 17 
     name lclavicle
     direction 0.915335 0.396201 0.0720134  
     length 4.16217  
     axis 0 0 0   XYZ
    dof ry rz
    limits (-20.0 10.0)
           (0.0 20.0)
  end
  begin
     id 18 
     name lhumerus
     direction 1 -4.48965e-011 6.383e-018   
     length 4.93042   
     axis -180 -30 -90   XYZ
    dof rx ry rz
    limits (-60.0 90.0)
           (-90.0 90.0)
           (-90.0 90.0)
  end
  begin
     id 19
     name lradius
     direction 1 -4.48972e-011 8.8689e-027   
     length 3.68177   
     axis -180 -30 -90   XYZ
    dof rx
    limits (-10.0 170.0)
  end
  begin
     id 20
     name lwrist
     direction 1 -4.48953e-011 1.17971e-026   
     length 1.84089   
     axis -7.69454e-015 90 90   XYZ
    dof ry
    limits (-180.0 0.0)
 end
  begin
     id 21 
     name lhand
     direction 1 -4.49027e-011 2.35802e-026   
     length 0.721479   
     axis -1.50533e-014 90 90   XYZ
    dof rx rz
    limits (-90.0 90.0)
           (-45.0 45.0)
  end
  begin
     id 22 
     name lfingers
     direction 1 -4.48915e-011 4.72027e-026   
     length 0.581675   
     axis -3.01059e-014 90 90   XYZ
    dof rx
    limits (0.0 90.0)
  end
  begin
     id 23
     name lthumb
     direction 0.707107 -6.34948e-011 0.707107   
     length 0.835172   
     axis -90 45 -5.12164e-014   XYZ
    dof rx rz
    limits (-45.0 45.0)
           (-45.0 45.0)
  end
  begin
     id 24 
     name rclavicle
     direction -0.882781 0.469197 0.0234974   
     length 3.95647  
     axis 0 0 0   XYZ 
    dof ry rz
    limits (-10.0 20.0)
           (-20.0 0.0)
  end
  begin
     id 25 
     name rhumerus
     direction -1 -4.48965e-011 -1.54906e-018  
     length 5.07905   
     axis -180 30 90   XYZ
    dof rx ry rz
    limits (-90.0 60.0)
           (-90.0 90.0)
           (-90.0 90.0)
  end
  begin
     id 26 
     name rradius
     direction -1 -4.48972e-011 5.47489e-027   
     length 3.54394   
     axis -180 30 90   XYZ
    dof rx
    limits (-10.0 170.0)
  end
  begin
     id 27 
     name rwrist
     direction -1 -4.48955e-011 1.17969e-026   
     length 1.77197   
     axis -7.69454e-015 -90 -90   XYZ
    dof ry
    limits (-180.0 0.0)
  end
  begin
     id 28
     name rhand
     direction -1 -4.48982e-011 2.35888e-026   
     length 0.681156   
     axis -1.50533e-014 -90 -90   XYZ
    dof rx rz
    limits (-90.0 90.0)
           (-45.0 45.0)
  end
  begin
     id 29
     name rfingers
     direction -1 -4.48955e-011 4.71877e-026   
     length 0.549165   
     axis -3.01059e-014 -90 -90   XYZ
    dof rx
    limits (0.0 90.0)
  end
  begin
     id 30
     name rthumb
     direction -0.707107 -6.3491e-011 0.707107   
     length 0.788495   
     axis -90 -45 5.12164e-014   XYZ
    dof rx rz
    limits (-45.0 45.0)
           (-45.0 45.0)
  end
:hierarchy
  begin
    root lhipjoint rhipjoint lowerback
    lhipjoint lfemur
    lfemur ltibia
    ltibia lfoot
    lfoot ltoes
    rhipjoint rfemur
    rfemur rtibia
    rtibia rfoot
    rfoot rtoes
    lowerback upperback
    upperback thorax
    thorax lowerneck lclavicle rclavicle
    lowerneck upperneck
    upperneck head
    lclavicle lhumerus
    lhumerus lradius
    lradius lwrist
    lwrist lhand lthumb
    lhand lfingers
    rclavicle rhumerus
    rhumerus rradius
    rradius rwrist
    rwrist rhand rthumb
    rhand rfingers
  end

#!OML:ASF H:\Bending\Project 1\Capture day 1\Session 1\Subject.ASF
:FULLY-SPECIFIED
:DEGREES
239
root -10.2655 18.2956 -16.6202 -150.972 87.9858 -164.312
lowerback 9.06761 -0.114013 0.698187
upperback -1.45442 0.0661877 1.88569
thorax -6.62386 0.0513148 1.57449
lowerneck -31.4556 -4.32534 -6.66299
upperneck 29.4007 -3.92385 3.27008
head 15.9089 -1.83133 1.66256
rclavicle 3.8763e-015 -2.74323e-014
rhumerus 45.1493 7.78937 -79.3251
rradius 20.7297
rwrist 23.6675
rhand -26.2614 -24.2833
rfingers 7.12502
rthumb 0.293235 -54.2629
lclavicle 3.8763e-015 -2.74323e-014
lhumerus 46.7884 -21.7484 73.1987
lradius 23.7166
lwrist 35.6184
lhand -31.0774 15.7673
lfingers 7.12502
lthumb -4.35791 45.7025
rfemur -4.83138 -0.295679 15.106
rtibia 1.43125e-014
rfoot -6.80348 -18.7343
rtoes -0.632196
lfemur -17.0475 -14.614 -11.0495
ltibia 20.8945
lfoot -20.974 10.2494
ltoes 19.0474
240
root -10.2585 18.294 -16.6196 -151.968 87.9235 -165.283
lowerback 9.01399 -0.117196 0.754412
upperback -1.39051 0.0639747 1.85564
thorax -6.52533 0.0471607 1.51055
lowerneck -31.5344 -4.3198 -6.56665
upperneck 29.4578 -3.97207 3.30074
head 15.9536 -1.83408 1.64932
rclavicle 1.98785e-016 3.02153e-014
rhumerus 45.2458 7.51036 -79.5706
rradius 20.6792
rwrist 23.8734
rhand -26.2273 -24.113
rfingers 7.12502
rthumb 0.326181 -54.0925
lclavicle 1.98785e-016 3.02153e-014
lhumerus 47.0052 -22.0854 72.5331
lradius 24.0066
lwrist 35.9462
lhand -31.0459 15.966
lfingers 7.12502
lthumb -4.32749 45.9018
rfemur -4.75809 -0.36336 15.1128
rtibia -1.43125e-014
rfoot -6.78298 -18.7436
rtoes -0.950495
lfemur -17.0373 -14.5169 -11.0809
ltibia 20.9341
lfoot -20.897 10.1375
ltoes 18.8332
241
root -10.253 18.2924 -16.6189 -152.737 87.8232 -166.025
lowerback 8.98792 -0.131859 0.830872
upperback -1.35264 0.0510955 1.84264
thorax -6.47 0.0376731 1.45511
lowerneck -31.5778 -4.34596 -6.5684
upperneck 29.528 -4.04836 3.41161
head 16.0044 -1.84728 1.68147
rclavicle 4.27387e-015 3.37934e-014
rhumerus 45.3161 7.29224 -79.7505
rradius 20.6286
rwrist 23.9731
rhand -26.1769 -23.9835
rfingers 7.12502
rthumb 0.374843 -53.9629
lclavicle 4.27387e-015 3.37934e-014
lhumerus 47.1678 -22.3554 72.0085
lradius 24.2155
lwrist 36.2233
lhand -30.9768 16.1629
lfingers 7.12502
lthumb -4.26072 46.1001
rfemur -4.68373 -0.461629 15.139
rtibia 3.18055e-015
rfoot -6.77556 -18.7424
rtoes -1.09794
lfemur -17.041 -14.4627 -11.0845
ltibia 20.9717
lfoot -20.8177 10.0339
ltoes 18.6425
242
root -10.2489 18.2911 -16.6182 -153.107 87.7066 -166.37
lowerback 8.98993 -0.152986 0.909489
upperback -1.34677 0.0327623 1.85272
thorax -6.46462 0.0261389 1.42399
lowerneck -31.5882 -4.3976 -6.65171
upperneck 29.6153 -4.14134 3.57445
head 16.062 -1.86878 1.74675
rclavicle 7.95139e-015 1.23246e-014
rhumerus 45.3331 7.20476 -79.7898
rradius 20.6231
rwrist 23.8771
rhand -26.099 -23.9488
rfingers 7.12502
rthumb 0.450168 -53.928
lclavicle 7.95139e-015 1.23246e-014
lhumerus 47.2512 -22.5552 71.6575
lradius 24.3458
lwrist 36.4187
lhand -30.887 16.3424
lfingers 7.12502
lthumb -4.17399 46.2813
rfemur -4.61633 -0.569198 15.1793
rtibia 3.18055e-015
rfoot -6.80625 -18.728
rtoes -0.963895
lfemur -17.0524 -14.4586 -11.0598
ltibia 21.0023
lfoot -20.7598 9.94511
ltoes 18.5637
243
root -10.246 18.29 -16.6175 -153.215 87.599 -166.46
lowerback 9.00625 -0.177389 0.970162
upperback -1.36634 0.0101274 1.88013
thorax -6.49434 0.0136042 1.42214
lowerneck -31.581 -4.458 -6.76644
upperneck 29.7145 -4.23493 3.74485
head 16.1234 -1.89309 1.821
rclavicle 6.06293e-015 -1.19271e-015
rhumerus 45.2926 7.27515 -79.6812
rradius 20.691
rwrist 23.5734
rhand -25.9839 -24.0021
rfingers 7.12502
rthumb 0.561305 -53.9811
lclavicle 6.06293e-015 -1.19271e-015
lhumerus 47.261 -22.6935 71.4505
lradius 24.4197
lwrist 36.5307
lhand -30.8031 16.4977
lfingers 7.12502
lthumb -4.09296 46.4381
rfemur -4.56307 -0.665689 15.2199
rtibia -6.36111e-015
rfoot -6.8678 -18.7068
rtoes -0.642134
lfemur -17.0645 -14.4948 -11.0211
ltibia 21.0221
lfoot -20.7357 9.8728
ltoes 18.6266
244
root -10.2436 18.2893 -16.6169 -153.353 87.5197 -166.589
lowerback 9.01692 -0.204455 0.996554
upperback -1.39748 -0.019531 1.91253
thorax -6.53299 -0.00103196 1.44599
lowerneck -31.5734 -4.50757 -6.85367
upperneck 29.8142 -4.31353 3.87889
head 16.1825 -1.91374 1.87838
rclavicle 1.98785e-015 5.1684e-015
rhumerus 45.2112 7.47999 -79.4809
rradius 20.8313
rwrist 23.1301
rhand -25.8339 -24.0823
rfingers 7.12502
rthumb 0.706174 -54.0609
lclavicle 1.98785e-015 5.1684e-015
lhumerus 47.2263 -22.7883 71.3111
lradius 24.4679
lwrist 36.5933
lhand -30.7531 16.6393
lfingers 7.12502
lthumb -4.04476 46.5807
rfemur -4.52796 -0.738884 15.2444
rtibia 7.95139e-015
rfoot -6.92432 -18.6922
rtoes -0.376766
lfemur -17.0719 -14.5517 -10.991
ltibia 21.0296
lfoot -20.7407 9.82135
ltoes 18.7594
245
root -10.2414 18.289 -16.6165 -153.788 87.4752 -167.022
lowerback 9.00609 -0.235788 0.980682
upperback -1.42671 -0.0607894 1.93931
thorax -6.55705 -0.0200031 1.48927
lowerneck -31.5734 -4.53122 -6.8706
upperneck 29.9035 -4.36523 3.94643
head 16.2321 -1.9255 1.90086
rclavicle -1.98785e-015 1.59028e-014
rhumerus 45.1128 7.76356 -79.2714
rradius 21.0169
rwrist 22.6562
rhand -25.6672 -24.1101
rfingers 7.12502
rthumb 0.867192 -54.0881
lclavicle -1.98785e-015 1.59028e-014
lhumerus 47.1799 -22.8585 71.1561
lradius 24.5156
lwrist 36.6555
lhand -30.7582 16.7953
lfingers 7.12502
lthumb -4.04963 46.7366
rfemur -4.50949 -0.787553 15.2422
rtibia -1.90833e-014
rfoot -6.93613 -18.6972
rtoes -0.399932
lfemur -17.0714 -14.6127 -10.9881
ltibia 21.0253
lfoot -20.7579 9.80073
ltoes 18.8227
246
root -10.2391 18.2891 -16.6164 -154.637 87.4592 -167.873
lowerback 8.96826 -0.273509 0.924093
upperback -1.44676 -0.116809 1.95765
thorax -6.5555 -0.0450018 1.54841
lowerneck -31.5761 -4.52281 -6.80616
upperneck 29.9764 -4.38371 3.93896
head 16.267 -1.92585 1.88406
rclavicle -4.27387e-015 4.92986e-014
rhumerus 45.0146 8.06822 -79.1165
rradius 21.2124
rwrist 22.2519
rhand -25.5095 -24.0377
rfingers 7.12502
rthumb 1.01948 -54.015
lclavicle -4.27387e-015 4.92986e-014
lhumerus 47.1422 -22.9167 70.9326
lradius 24.5732
lwrist 36.753
lhand -30.8248 16.9992
lfingers 7.12502
lthumb -4.11396 46.9392
rfemur -4.50073 -0.818577 15.2128
rtibia -4.77083e-015
rfoot -6.88757 -18.7253
rtoes -0.77321
lfemur -17.0613 -14.672 -11.0187
ltibia 21.0105
lfoot -20.7676 9.82411
ltoes 18.6776
247
root -10.2366 18.2897 -16.6163 -155.784 87.4581 -169.017
lowerback 8.90841 -0.31804 0.838246
upperback -1.45803 -0.186181 1.97301
thorax -6.53152 -0.0756344 1.62246
lowerneck -31.569 -4.48576 -6.68027
upperneck 30.0344 -4.36882 3.86863
head 16.2861 -1.91525 1.83675
rclavicle 1.49089e-015 -2.5842e-014
rhumerus 44.92 8.35733 -79.0359
rradius 21.3922
rwrist 21.9701
rhand -25.3803 -23.8823
rfingers 7.12502
rthumb 1.1443 -53.8589
lclavicle 1.49089e-015 -2.5842e-014
lhumerus 47.116 -22.9676 70.6352
lradius 24.6356
lwrist 36.8861
lhand -30.9414 17.2759
lfingers 7.12502
lthumb -4.22651 47.2137
rfemur -4.49167 -0.840571 15.1664
rtibia 2.06736e-014
rfoot -6.80198 -18.7655
rtoes -1.32636
lfemur -17.0404 -14.7366 -11.0722
ltibia 20.9871
lfoot -20.7604 9.89946
ltoes 18.2713
248
root -10.2341 18.2909 -16.6162 -156.919 87.4601 -170.143
lowerback 8.83669 -0.366461 0.741563
upperback -1.46569 -0.261774 1.99401
thorax -6.49648 -0.10885 1.70912
lowerneck -31.5407 -4.43053 -6.53061
upperneck 30.085 -4.32664 3.76152
head 16.2933 -1.89662 1.77553
rclavicle -2.98177e-016 -2.38542e-015
rhumerus 44.8224 8.62145 -79.0056
rradius 21.5504
rwrist 21.8049
rhand -25.2835 -23.7297
rfingers 7.12502
rthumb 1.23775 -53.7059
lclavicle -2.98177e-016 -2.38542e-015
lhumerus 47.0951 -23.0153 70.2902
lradius 24.6894
lwrist 37.0281
lhand -31.0781 17.632
lfingers 7.12502
lthumb -4.35852 47.5671
rfemur -4.47326 -0.857961 15.1188
rtibia -1.74931e-014
rfoot -6.73172 -18.7976
rtoes -1.74581
lfemur -17.0079 -14.8174 -11.1281
ltibia 20.9571
lfoot -20.7405 10.0205
ltoes 17.669
